<svg width="120" height="32" viewBox="0 0 120 32" xmlns="http://www.w3.org/2000/svg">
  <g transform="translate(0, 2) scale(0.06)">
    <path d="M192.8,11.3 C200.5,1.9 207.6,-2.4 214.2,-1.5 C220.7,-0.6 226.7,5.5 232.1,16.8 L256.3,61.9 C260.4,70.5 264.4,78.8 268.3,86.8 L293.4,138.8 C298.6,149.7 302.5,159.2 305,167.3 L312.4,188.1 C315.6,197.3 317.3,205.5 317.4,212.7 C317.5,219.9 316.2,226.1 313.3,231.2 C310.4,236.4 306,240.2 300.2,242.7 L263,258 C256.4,260.6 249.7,262.1 243,262.5 C236.3,262.9 229.6,262.1 223,260 L187.9,248.8 C180.7,246.5 174.1,244.6 168,243.1 L145.4,237.9 C138.5,236.4 132,235.3 126,234.6 L108,233.1 C101.5,232.5 95.1,232.1 88.8,232 L47.4,231.5 C39.9,231.4 32.8,231.2 26.2,230.9 C19.6,230.6 13.6,229.8 8.1,228.4 L0,226.3 L-25.7,203.2 L-42.3,185.3 C-47.6,179.6 -51.3,173.8 -53.4,168 L-59.5,148.8 C-61.2,142.3 -61.5,135.5 -60.4,128.6 L-58.4,115.6 C-57,108.3 -54.7,101.5 -51.6,95.1 L-38.3,67 C-34,58.8 -29.8,51.1 -25.8,43.9 L-6.2,8.9 L10.6,-16.9 L27.7,-43.3 C32.7,-51.1 38.3,-57 44.4,-61 C50.5,-65 57.1,-67.2 64.2,-67.6 L98,-69.1 L115.8,-69.9 C122.3,-70.2 128.6,-70 134.7,-69.3 C140.8,-68.6 146.5,-67.2 151.7,-65.2 L179,-55.1 L196,-48.8 C202.1,-46.6 207.8,-44.6 212.9,-42.8 L229.8,-37 L241,-32.9 C246.8,-30.7 251.6,-27.9 255.4,-24.6 C259.2,-21.3 261.8,-17.6 263.2,-13.4 L267.7,1.8 L270,11.8 C270.8,17.4 270.6,22.8 269.4,28.1 C268.2,33.3 266.1,38.1 263,42.4 L244,67.8 L225.5,92.5 C219.7,100.1 214.3,107 209.4,113 L191.1,136 L175.7,155 L160.7,174 C156.4,179.3 152.1,184.4 147.9,189.2 L131.7,208.7 L120.3,222 L111.4,232.8 C108,236.9 104.5,240.7 100.9,244.2 L83.6,261 C78.8,265.6 74.2,269.4 69.8,272.3 C65.4,275.2 60.9,277.2 56.4,278.3 L38.3,282.8 L23.6,286 L7.3,289.2 C1.1,290.4 -5,290.7 -10.9,290.1 C-16.8,289.5 -22.3,288.1 -27.4,285.9 L-57.7,273.4 L-75.3,266.1 L-92.6,258.9 C-98.8,256.3 -104.3,253.2 -109.2,249.7 L-131,234.3 L-145,224.6 L-159.2,214.6 L-172.6,205.1 L-185.3,196.1 L-197.6,187.5 L-209.2,179.3 L-220,171.6 C-226.3,167 -231.8,162.1 -236.6,156.9 L-251.3,141 C-256.2,135.7 -260.1,130.3 -263,124.8 L-269.7,112.5 C-271.9,108.4 -273.5,104.1 -274.5,99.6 L-278.3,81.3 L-280,72.6 L-281.3,63.6 L-282.2,54.4 C-282.6,48.1 -282.6,41.9 -282.2,35.6 C-281.8,29.3 -280.9,23.1 -279.4,17.1 L-274.4,0 L-269,-15.8 L-263.2,-30.3 C-260,-38.3 -256.3,-45.5 -252,-51.9 L-235.8,-76 C-232.1,-81.4 -227.8,-86.2 -223,-90.4 L-205,-106 L-188.8,-119.5 C-182.9,-124.3 -176.7,-128.4 -170.2,-131.7 L-146.4,-143.9 C-139.7,-147.3 -132.8,-149.9 -125.7,-151.7 L-100,-157.9 L-82.9,-161.9 C-76.3,-163.4 -69.6,-164.2 -62.8,-164.3 C-56,-164.4 -49.3,-163.9 -42.8,-162.8 L-2.8,-156.3 C1.6,-155.6 5.6,-154.6 9.3,-153.2 L36,-143 C41.6,-140.8 46.5,-138.2 50.7,-135.2 C54.9,-132.2 58.5,-128.7 61.4,-124.7 L77.3,-103 C80.6,-98.5 83.3,-93.6 85.3,-88.4 C87.3,-83.2 88.6,-77.8 89.2,-72.1 L92.4,-46.8 L93.6,-36 C93.8,-30.2 93.7,-24.5 93.3,-18.8 C92.9,-13.1 92,-7.5 90.6,-2 C89.2,3.5 87.2,8.9 84.6,14.2 L70.7,40.6 L56.9,65 C51.3,74.9 45.8,83.5 40.5,90.8 L21.7,116 L1,144 C-4,150.7 -8.9,156.3 -13.7,160.8 L-30,175.7 C-36.4,181.6 -42.4,186.2 -48,189.5 C-53.6,192.8 -58.9,195.1 -63.9,196.4 L-80.1,200.6 L-92.1,203.7 L-106.1,207.3 L-118,210.4 C-123.6,211.8 -128.7,212.8 -133.3,213.3 L-147,214.8 L-156,215.8 L-164.9,216.7 C-170.8,217.3 -176.4,217.5 -181.7,217.3 C-187,217.1 -191.9,216.6 -196.4,215.8 L-211,213.2 L-219.7,211.7 L-228.3,210.1 C-233.9,209 -239.1,207.6 -243.8,205.8 L-256.3,200.6 Z" fill="#FFFFFF"/>
    <path d="M 320 -100 L 320 -40 M 290 -70 L 350 -70" stroke="#FFFFFF" stroke-width="15"/>
  </g>
  <text x="36" y="24" font-family="'Montserrat', sans-serif" font-weight="700" font-size="22" fill="#FFFFFF" letter-spacing="-0.5">spottr</text>
  <circle cx="106" cy="24" r="3" fill="#007BFF"/>
</svg>
